HIERARCHY
ROOT mPelvis
{
	OFFSET 0.000000 1.067000 -0.000000
	CHANNELS 6 Xposition Yposition Zposition Xrotation Yrotation Zrotation
	JOINT mTorso
	{
		OFFSET 0.000000 0.084000 -0.000000
		CHANNELS 3 Xrotation Yrotation Zrotation
		JOINT mChest
		{
			OFFSET 0.000000 0.205000 -0.015000
			CHANNELS 3 Xrotation Yrotation Zrotation
			JOINT mNeck
			{
				OFFSET 0.000000 0.251000 -0.010000
				CHANNELS 3 Xrotation Yrotation Zrotation
				JOINT mHead
				{
					OFFSET 0.000000 0.076000 0.000000
					CHANNELS 3 Xrotation Yrotation Zrotation
					JOINT mSkull
					{
						OFFSET 0.000000 0.079000 0.000000
						CHANNELS 3 Xrotation Yrotation Zrotation
						End Site
						{
							OFFSET -0.000000 -0.100000 0.000000
						}
					}
					JOINT mEyeRight
					{
						OFFSET -0.036000 0.079000 0.098000
						CHANNELS 3 Xrotation Yrotation Zrotation
						End Site
						{
							OFFSET -0.000000 -0.100000 0.000000
						}
					}
					JOINT mEyeLeft
					{
						OFFSET 0.036000 0.079000 0.098000
						CHANNELS 3 Xrotation Yrotation Zrotation
						End Site
						{
							OFFSET -0.000000 -0.100000 0.000000
						}
					}
					JOINT HEAD
					{
						OFFSET 0.000000 0.070000 0.020000
						CHANNELS 3 Xrotation Yrotation Zrotation
						End Site
						{
							OFFSET -0.000000 -0.100000 0.000000
						}
					}
				}
				JOINT NECK
				{
					OFFSET 0.000000 0.020000 0.000000
					CHANNELS 3 Xrotation Yrotation Zrotation
					End Site
					{
						OFFSET -0.000000 -0.100000 0.000000
					}
				}
			}
			JOINT mCollarLeft
			{
				OFFSET 0.085000 0.165000 -0.021000
				CHANNELS 3 Xrotation Yrotation Zrotation
				JOINT mShoulderLeft
				{
					OFFSET 0.079000 0.000000 -0.000000
					CHANNELS 3 Xrotation Yrotation Zrotation
					JOINT mElbowLeft
					{
						OFFSET 0.248000 0.000000 -0.000000
						CHANNELS 3 Xrotation Yrotation Zrotation
						JOINT mWristLeft
						{
							OFFSET 0.205000 0.000000 -0.000000
							CHANNELS 3 Xrotation Yrotation Zrotation
							JOINT L_HAND
							{
								OFFSET 0.050000 0.000000 0.010000
								CHANNELS 3 Xrotation Yrotation Zrotation
								End Site
								{
									OFFSET 0.000000 -0.100000 0.000000
								}
							}
						}
						JOINT L_LOWER_ARM
						{
							OFFSET 0.100000 0.000000 -0.000000
							CHANNELS 3 Xrotation Yrotation Zrotation
							End Site
							{
								OFFSET 0.000000 -0.100000 0.000000
							}
						}
					}
					JOINT L_UPPER_ARM
					{
						OFFSET 0.120000 0.010000 -0.000000
						CHANNELS 3 Xrotation Yrotation Zrotation
						End Site
						{
							OFFSET 0.000000 -0.100000 0.000000
						}
					}
				}
				JOINT L_CLAVICLE
				{
					OFFSET 0.000000 0.020000 0.020000
					CHANNELS 3 Xrotation Yrotation Zrotation
					End Site
					{
						OFFSET -0.000000 -0.100000 0.000000
					}
				}
			}
			JOINT mCollarRight
			{
				OFFSET -0.085000 0.165000 -0.021000
				CHANNELS 3 Xrotation Yrotation Zrotation
				JOINT mShoulderRight
				{
					OFFSET -0.079000 0.000000 0.000000
					CHANNELS 3 Xrotation Yrotation Zrotation
					JOINT mElbowRight
					{
						OFFSET -0.248000 0.000000 0.000000
						CHANNELS 3 Xrotation Yrotation Zrotation
						JOINT mWristRight
						{
							OFFSET -0.205000 0.000000 0.000000
							CHANNELS 3 Xrotation Yrotation Zrotation
							JOINT R_HAND
							{
								OFFSET -0.050000 0.000000 0.010000
								CHANNELS 3 Xrotation Yrotation Zrotation
								End Site
								{
									OFFSET 0.000000 -0.100000 0.000000
								}
							}
						}
						JOINT R_LOWER_ARM
						{
							OFFSET -0.100000 0.000000 0.000000
							CHANNELS 3 Xrotation Yrotation Zrotation
							End Site
							{
								OFFSET 0.000000 -0.100000 0.000000
							}
						}
					}
					JOINT R_UPPER_ARM
					{
						OFFSET -0.120000 0.010000 0.000000
						CHANNELS 3 Xrotation Yrotation Zrotation
						End Site
						{
							OFFSET 0.000000 -0.100000 0.000000
						}
					}
				}
				JOINT R_CLAVICLE
				{
					OFFSET 0.000000 0.020000 0.020000
					CHANNELS 3 Xrotation Yrotation Zrotation
					End Site
					{
						OFFSET -0.000000 -0.100000 0.000000
					}
				}
			}
			JOINT CHEST
			{
				OFFSET 0.000000 0.070000 0.028000
				CHANNELS 3 Xrotation Yrotation Zrotation
				End Site
				{
					OFFSET -0.000000 -0.100000 0.000000
				}
			}
			JOINT LEFT_PEC
			{
				OFFSET 0.082000 0.042000 0.119000
				CHANNELS 3 Xrotation Yrotation Zrotation
				End Site
				{
					OFFSET 0.000000 -0.100000 0.000000
				}
			}
			JOINT RIGHT_PEC
			{
				OFFSET -0.082000 0.042000 0.119000
				CHANNELS 3 Xrotation Yrotation Zrotation
				End Site
				{
					OFFSET 0.000000 -0.100000 0.000000
				}
			}
			JOINT UPPER_BACK
			{
				OFFSET 0.000000 0.017253 0.000000
				CHANNELS 3 Xrotation Yrotation Zrotation
				End Site
				{
					OFFSET -0.000000 -0.100000 0.000000
				}
			}
		}
		JOINT BELLY
		{
			OFFSET 0.000000 0.040000 0.028000
			CHANNELS 3 Xrotation Yrotation Zrotation
			End Site
			{
				OFFSET -0.000000 -0.100000 0.000000
			}
		}
		JOINT LOWER_BACK
		{
			OFFSET 0.000000 0.022848 -0.000000
			CHANNELS 3 Xrotation Yrotation Zrotation
			End Site
			{
				OFFSET -0.000000 -0.100000 0.000000
			}
		}
	}
	JOINT mHipRight
	{
		OFFSET -0.129000 -0.041000 0.034000
		CHANNELS 3 Xrotation Yrotation Zrotation
		JOINT mKneeRight
		{
			OFFSET 0.049000 -0.491000 -0.001000
			CHANNELS 3 Xrotation Yrotation Zrotation
			JOINT mAnkleRight
			{
				OFFSET -0.000000 -0.468000 -0.029000
				CHANNELS 3 Xrotation Yrotation Zrotation
				JOINT mFootRight
				{
					OFFSET 0.000000 -0.061000 0.112000
					CHANNELS 3 Xrotation Yrotation Zrotation
					JOINT mToeRight
					{
						OFFSET 0.000000 0.000000 0.109000
						CHANNELS 3 Xrotation Yrotation Zrotation
						End Site
						{
							OFFSET -0.000000 -0.100000 0.000000
						}
					}
				}
				JOINT R_FOOT
				{
					OFFSET 0.000000 -0.041000 0.077000
					CHANNELS 3 Xrotation Yrotation Zrotation
					End Site
					{
						OFFSET 0.000000 -0.100000 0.000000
					}
				}
			}
			JOINT R_LOWER_LEG
			{
				OFFSET -0.000000 -0.200000 -0.020000
				CHANNELS 3 Xrotation Yrotation Zrotation
				End Site
				{
					OFFSET -0.000000 -0.100000 0.000000
				}
			}
		}
		JOINT R_UPPER_LEG
		{
			OFFSET 0.050000 -0.220000 -0.020000
			CHANNELS 3 Xrotation Yrotation Zrotation
			End Site
			{
				OFFSET -0.000000 -0.100000 0.000000
			}
		}
	}
	JOINT mHipLeft
	{
		OFFSET 0.127000 -0.041000 0.034000
		CHANNELS 3 Xrotation Yrotation Zrotation
		JOINT mKneeLeft
		{
			OFFSET -0.046000 -0.491000 -0.001000
			CHANNELS 3 Xrotation Yrotation Zrotation
			JOINT mAnkleLeft
			{
				OFFSET 0.001000 -0.468000 -0.029000
				CHANNELS 3 Xrotation Yrotation Zrotation
				JOINT mFootLeft
				{
					OFFSET 0.000000 -0.061000 0.112000
					CHANNELS 3 Xrotation Yrotation Zrotation
					JOINT mToeLeft
					{
						OFFSET 0.000000 0.000000 0.109000
						CHANNELS 3 Xrotation Yrotation Zrotation
						End Site
						{
							OFFSET -0.000000 -0.100000 0.000000
						}
					}
				}
				JOINT L_FOOT
				{
					OFFSET 0.000000 -0.041000 0.077000
					CHANNELS 3 Xrotation Yrotation Zrotation
					End Site
					{
						OFFSET 0.000000 -0.100000 0.000000
					}
				}
			}
			JOINT L_LOWER_LEG
			{
				OFFSET -0.000000 -0.200000 -0.020000
				CHANNELS 3 Xrotation Yrotation Zrotation
				End Site
				{
					OFFSET -0.000000 -0.100000 0.000000
				}
			}
		}
		JOINT L_UPPER_LEG
		{
			OFFSET -0.050000 -0.220000 -0.020000
			CHANNELS 3 Xrotation Yrotation Zrotation
			End Site
			{
				OFFSET -0.000000 -0.100000 0.000000
			}
		}
	}
	JOINT PELVIS
	{
		OFFSET -0.000000 -0.020000 -0.010000
		CHANNELS 3 Xrotation Yrotation Zrotation
		End Site
		{
			OFFSET -0.000000 -0.100000 0.000000
		}
	}
	JOINT BUTT
	{
		OFFSET -0.000000 -0.100000 -0.060000
		CHANNELS 3 Xrotation Yrotation Zrotation
		End Site
		{
			OFFSET -0.000000 -0.100000 0.000000
		}
	}
}
MOTION
Frames: 4
Frame Time: 0.022222
0.000000 1.040931 0.000000 -0.000001 0.000000 -2.642549 6.354242 -1.561403 0.308709 -3.578054 0.490421 1.253660 16.618637 -0.000002 -0.000003 22.091598 -0.000003 -0.000003 -0.000002 0.000022 -179.999991 -0.000003 -0.000000 0.000000 -0.000003 -0.000000 0.000000 -0.000003 -0.000000 -0.000000 -0.000002 -0.000000 0.000000 -4.793972 -17.461314 -8.321283 -15.070993 -45.204405 -89.051631 0.000002 -0.904007 -0.000000 48.505729 -0.497867 -18.520184 -0.000003 0.000002 -0.000000 -0.000002 -0.000000 0.000000 -0.000000 -0.000001 -0.000000 0.000000 0.000003 -0.000000 -0.291804 21.112093 3.919031 -15.514401 15.816753 87.268917 -0.000004 10.061778 -0.000001 49.330485 0.688444 13.612460 -0.000000 -0.000002 -0.000000 -0.000000 0.000001 -0.000001 -0.000003 -0.000001 0.000000 -0.000000 -0.000001 -0.000001 -0.000000 0.000000 -0.000000 -0.000000 0.000000 -0.000000 -0.000000 0.000000 -0.000000 -0.000000 0.000000 -0.000000 0.000001 -0.000001 0.000000 0.000000 -0.000001 0.000000 -10.282449 0.665825 0.595593 20.596919 -0.149096 -1.260590 -9.798992 -0.441952 0.399304 0.000005 0.000011 -0.000022 -0.000000 0.000000 0.000000 0.000006 0.000012 -0.000021 -0.000002 -0.000000 -0.000000 -0.000000 0.000003 0.000136 -11.196669 -1.073555 0.798733 23.235988 -0.152388 -1.422841 -9.752040 -0.641788 -0.418420 -0.000002 0.000000 0.000000 0.000000 0.000000 0.000000 -0.000001 -0.000001 -0.000001 -0.000002 0.000001 0.000000 -0.000001 0.000002 -0.000100 -0.000000 -0.000000 -0.000000 -0.000000 -0.000000 -0.000000 
0.000000 1.052450 0.000000 -0.000000 0.000000 -0.722088 6.248072 -1.665739 -1.130622 -3.609850 0.457697 0.444434 16.618637 -0.000002 -0.000003 22.091589 -0.000003 -0.000003 -0.000004 0.000022 -179.999991 -0.000004 -0.000000 0.000000 -0.000004 -0.000000 0.000000 -0.000004 -0.000000 0.000000 0.000002 0.000000 0.000000 -4.793972 -17.461315 -9.050603 -13.162258 -45.035798 -87.182167 0.000002 -0.994274 0.000000 48.505732 -0.497864 -18.520183 0.000000 0.000003 -0.000001 -0.000000 -0.000001 0.000001 0.000002 0.000000 0.000000 0.000000 -0.000001 0.000001 -0.264977 21.083773 4.995917 -16.000167 15.905818 86.780572 0.000003 9.807983 -0.000002 49.330491 0.688443 13.612459 0.000000 0.000001 -0.000000 0.000002 0.000002 -0.000002 0.000002 0.000001 -0.000001 0.000000 -0.000001 -0.000000 -0.000000 0.000000 -0.000000 -0.000000 0.000000 -0.000000 -0.000000 0.000000 -0.000000 -0.000000 0.000000 -0.000000 -0.000001 -0.000000 0.000000 0.000000 -0.000000 0.000000 -11.300310 0.930435 -1.363217 22.675581 -0.189080 -1.383050 -10.779663 -0.489805 0.434983 0.000007 0.000000 0.000004 -0.000000 0.000000 0.000000 0.000006 -0.000001 0.000001 0.000000 -0.000000 -0.000000 0.000001 0.000003 0.000137 -10.092205 -0.788662 -1.155502 21.014223 -0.113009 -1.290829 -8.649902 -0.615738 -0.399152 0.000004 -0.000011 0.000023 -0.000000 0.000000 0.000000 0.000006 -0.000010 0.000019 0.000001 0.000001 -0.000000 0.000000 0.000002 -0.000100 -0.000000 -0.000000 -0.000000 -0.000000 -0.000000 -0.000000 
0.000000 1.037498 0.000000 0.000000 0.000000 1.230594 6.140322 -1.766453 -2.556954 -3.641813 0.425713 -0.357522 16.618637 -0.000002 -0.000003 22.091596 -0.000003 -0.000004 0.000000 0.000022 -179.999991 -0.000000 -0.000000 -0.000000 -0.000000 -0.000000 -0.000000 -0.000000 -0.000000 -0.000000 -0.000001 0.000000 -0.000000 -4.793972 -17.461315 -9.773371 -11.285976 -44.825671 -85.344826 0.000001 -1.083739 -0.000001 48.505729 -0.497866 -18.520183 -0.000003 0.000002 -0.000001 -0.000001 -0.000001 0.000001 0.000002 -0.000002 -0.000000 -0.000000 0.000002 0.000001 -0.237840 21.056177 6.062835 -16.480989 15.998005 86.297200 -0.000000 9.556451 -0.000001 49.330485 0.688440 13.612462 -0.000000 0.000002 0.000001 -0.000001 0.000001 -0.000001 0.000002 -0.000001 0.000000 0.000000 0.000002 0.000000 0.000000 -0.000000 -0.000000 -0.000000 -0.000000 -0.000000 -0.000000 -0.000000 0.000000 -0.000000 -0.000000 0.000000 -0.000000 -0.000000 -0.000000 0.000000 -0.000000 -0.000000 -12.298942 1.226586 -3.298364 24.734301 -0.233034 -1.502834 -11.751442 -0.537820 0.469524 0.000012 -0.000016 0.000027 -0.000000 0.000000 -0.000000 0.000013 -0.000016 0.000025 -0.000001 -0.000001 0.000000 -0.000000 0.000003 0.000137 -8.989548 -0.543850 -3.095769 18.809395 -0.079018 -1.158415 -7.557355 -0.589550 -0.380552 0.000011 -0.000024 0.000047 0.000000 0.000000 0.000000 0.000010 -0.000024 0.000047 0.000001 0.000002 0.000001 0.000001 0.000002 -0.000099 0.000000 -0.000000 -0.000000 0.000000 -0.000000 -0.000000 
0.000000 0.995631 0.000000 0.000001 0.000000 3.191799 6.032160 -1.862659 -3.957053 -3.673626 0.394748 -1.144932 16.618637 -0.000003 -0.000003 22.091595 -0.000003 -0.000004 -0.000002 0.000022 -179.999991 -0.000003 -0.000000 0.000000 -0.000003 -0.000000 0.000000 -0.000003 -0.000000 -0.000000 0.000000 0.000000 0.000000 -4.793974 -17.461321 -10.483047 -9.461937 -44.578343 -83.559079 0.000003 -1.171591 -0.000000 48.505729 -0.497867 -18.520183 -0.000003 -0.000001 -0.000000 -0.000001 -0.000000 0.000001 0.000002 0.000001 -0.000001 0.000000 0.000001 0.000001 -0.210674 21.029545 7.110045 -16.952504 16.092318 85.823171 0.000003 9.309441 -0.000002 49.330485 0.688442 13.612464 -0.000000 0.000000 0.000000 0.000002 0.000001 -0.000002 0.000004 -0.000000 -0.000001 -0.000000 -0.000001 -0.000001 0.000000 -0.000000 0.000000 -0.000000 -0.000001 0.000000 -0.000000 -0.000000 0.000000 0.000000 -0.000000 0.000000 -0.000001 0.000000 -0.000000 -0.000001 0.000000 -0.000000 -13.268051 1.549522 -5.190885 26.753344 -0.280297 -1.618706 -12.705476 -0.585520 0.502637 0.000015 -0.000028 0.000053 -0.000000 0.000000 0.000000 0.000016 -0.000028 0.000052 0.000001 -0.000001 -0.000000 0.000001 0.000003 0.000137 -7.900954 -0.340229 -5.002424 16.643014 -0.050607 -1.027134 -6.484393 -0.563493 -0.362772 0.000017 -0.000035 0.000065 0.000000 0.000000 0.000000 0.000017 -0.000035 0.000063 -0.000001 0.000002 0.000000 0.000001 0.000002 -0.000097 -0.000000 -0.000000 -0.000000 -0.000000 -0.000000 -0.000000 
